<mxfile host="app.diagrams.net" modified="2023-12-27T14:53:11.349Z" agent="Mozilla/5.0 (Windows NT 10.0; Win64; x64) AppleWebKit/537.36 (KHTML, like Gecko) Chrome/120.0.0.0 Safari/537.36" version="22.1.13" etag="GpGzHgu8sApYTM9GZTXh" type="github">
  <diagram name="Page-1" id="lWNMOFAuRYespOmFaY1m">
    <mxGraphModel>
      <root>
        <mxCell id="0" />
        <mxCell id="1" parent="0" />
      </root>
    </mxGraphModel>
  </diagram>
</mxfile>
